<svg xmlns="http://www.w3.org/2000/svg" viewBox="0 0 231.39 277.4"><defs><style>.cls-1{font-size:22.14px;fill:#fff;font-family:OTSBAggroB-KSCpc-EUC-H, SB AggroOTF;}.cls-2{letter-spacing:-0.02em;}.cls-3,.cls-6{fill:none;}.cls-3{stroke:#fff;}.cls-3,.cls-5,.cls-6{stroke-miterlimit:10;}.cls-4,.cls-5{fill:#245cce;}.cls-5,.cls-6{stroke:#000;}</style></defs><g id="레이어_2" data-name="레이어 2"><g id="레이어_1-2" data-name="레이어 1"><rect x="28.59" y="18.75" width="174.21" height="239.9" transform="translate(-32.52 35.48) rotate(-15.31)"/><text class="cls-1" transform="translate(22.76 73.24) rotate(-15.31) scale(0.99 1)">E<tspan class="cls-2" x="16.58" y="0">p</tspan><tspan x="34.58" y="0">i-tiz</tspan><tspan class="cls-2" x="91.71" y="0">e</tspan><tspan x="108.79" y="0">r</tspan></text><line class="cls-3" x1="59.37" y1="205.85" x2="187.7" y2="170.89"/><line class="cls-3" x1="62.37" y1="215.85" x2="190.7" y2="180.89"/><line class="cls-3" x1="65.37" y1="225.85" x2="193.69" y2="190.89"/><line class="cls-3" x1="68.37" y1="235.85" x2="196.69" y2="200.9"/><line class="cls-3" x1="71.36" y1="245.85" x2="199.69" y2="210.9"/><line class="cls-3" x1="74.36" y1="255.85" x2="202.68" y2="220.9"/><path class="cls-4" d="M78.24,159.92a6.74,6.74,0,0,0,.48-4.07,8.94,8.94,0,0,1-12.8-5.91,6.73,6.73,0,0,0-2.79,3c-1.69,3.68.31,8.23,4.48,10.15S76.54,163.6,78.24,159.92Z"/><path class="cls-4" d="M79.82,164.33a8.61,8.61,0,0,1-.26-7.84,6.7,6.7,0,0,0-4,.71c-3.58,1.91-4.74,6.74-2.58,10.79s6.8,5.8,10.39,3.9a6.69,6.69,0,0,0,2.84-2.95A8.62,8.62,0,0,1,79.82,164.33Z"/><ellipse class="cls-4" cx="116.78" cy="117.86" rx="55.99" ry="24.79" transform="translate(-49.13 119.94) rotate(-45.98)"/><path class="cls-5" d="M94.75,124.62s-7.22,11.54,3.54,21.65"/><path class="cls-5" d="M107.25,114.12s-7.22,11.54,3.54,21.65"/><path class="cls-5" d="M119.25,100.12s-7.22,11.54,3.54,21.65"/><path class="cls-5" d="M128.27,86.27s-1.05,17.33,18.76,21.1"/><line class="cls-6" x1="146.53" y1="81.87" x2="145.53" y2="88.87"/><line class="cls-6" x1="142.53" y1="83.87" x2="148.53" y2="84.87"/></g></g></svg>