<svg xmlns="http://www.w3.org/2000/svg" viewBox="0 0 214.99 200.96"><defs><style>.cls-1{fill:#f5ff3f;stroke:#000;stroke-miterlimit:10;}</style></defs><g id="레이어_2" data-name="레이어 2"><g id="레이어_1-2" data-name="레이어 1"><path class="cls-1" d="M107.49,200.37a319.88,319.88,0,0,1-41.35-31.31,257.89,257.89,0,0,1-33.9-35.82A160.51,160.51,0,0,1,9.16,96.43C3.38,84.4.5,72.88.5,62.36A64.1,64.1,0,0,1,4.59,39.07a63.4,63.4,0,0,1,11.3-19.79A59.59,59.59,0,0,1,33.2,5.51,49.62,49.62,0,0,1,55.32.5,68.64,68.64,0,0,1,71,2.5a78.59,78.59,0,0,1,14.9,6A82.63,82.63,0,0,1,98.6,18a58.92,58.92,0,0,1,8.89,13,47.08,47.08,0,0,1,9.14-13,62.75,62.75,0,0,1,12.5-9.52A72.76,72.76,0,0,1,144,2.5a67,67,0,0,1,15.63-2,50.45,50.45,0,0,1,22.12,5A59.59,59.59,0,0,1,199.1,19.28a68.74,68.74,0,0,1,11.3,19.79,69.88,69.88,0,0,1,4.09,23.29c0,10.52-2.89,22-8.42,34.07A178.9,178.9,0,0,1,183,133.24a276.61,276.61,0,0,1-34.14,35.82A337.32,337.32,0,0,1,107.49,200.37Z"/></g></g></svg>