<svg xmlns="http://www.w3.org/2000/svg" viewBox="0 0 843.23 171.43"><defs><style>.cls-1{fill:none;stroke:#000;stroke-linecap:round;stroke-linejoin:round;stroke-width:2px;}.cls-2{font-size:17.23px;font-family:GmarketSansMedium-KSCpc-EUC-H, Gmarket Sans;}</style></defs><g id="레이어_2" data-name="레이어 2"><g id="레이어_1-2" data-name="레이어 1"><path class="cls-1" d="M36,81.74C37.8,84.93,80,50.89,82.33,55c1.13,2-39.18,25.64-38.53,26.77C44.93,83.7,90.16,55,90.16,55c.38.66-38.5,26.62-38.42,26.76,1.48,2.56,44-25.4,44-25.4S57.14,78.19,59.19,81.73C60,83.14,95.38,60,95.74,60.63c.77,1.33-31.43,18.91-30.16,21.1.6,1,30.16-17.42,30.16-17.42S71.65,79.58,72.89,81.72c0,.06,22.35-14.08,22.86-13.19.75,1.3-16.22,13.19-16.22,13.19.87,1.52,15.93-9.87,16.22-9.37.16.29-8.53,9.1-8.38,9.37s8.06-5.4,8.39-4.84c0,.08-.42,4.83-.42,4.83a3.5,3.5,0,0,1,.42-.24"/><path class="cls-1" d="M36,33.73C38.37,37.9,82.33,7,82.33,7s-40.08,24.82-39,26.76c2.31,4,45.5-28.28,46.37-26.77,0,0-39.43,25.27-38.57,26.77C53.35,37.5,95.54,3.49,97.54,7c0,0-39.36,26.68-39.32,26.77S96.85,7.13,98.71,10.35c.62,1.08-35.14,20.49-33.48,23.36.41.7,33.48-19.32,33.48-19.32S70,31,71.51,33.71c0,0,27-16,27.2-15.7L77.83,33.71c.65,1.11,19.79-13.95,20.89-12.06.5.87-14.23,10.8-13.5,12.05s13.17-8.37,13.5-7.79c0,0-6,7.76-6,7.79s5.71-3.92,6-3.45"/><path class="cls-1" d="M2.5,7.17,2.82,7A37.81,37.81,0,0,0,2.5,11.2S9.36,6.2,9.81,7c0,0-7.71,8-7.31,8.64,0,0,14.71-9.08,15-8.64.74,1.28-15.57,11.43-15,12.48C3.49,21.19,24.12,7,24.12,7c.27.47-22.91,14.65-21.62,16.89C2.62,24.08,31.64,6.79,31.74,7,31.74,7,.72,25,2.5,28L39,7c.27.47-36.65,24.27-36.49,24.54C2.84,32.1,45,7,45,7,47.19,10.76,2.5,35.5,2.5,35.5,3.12,36.57,51.34,6,51.92,7,51.92,7,2.16,39,2.5,39.6,3,40.54,59,7,59,7,59.88,8.46,2.5,43.38,2.5,43.38,4.55,46.94,62,.8,65.58,7,66.46,8.48.23,44.06,2.5,48c3,5.25,70-42.87,71.07-41L2.5,52.6S33.57,33,34.28,34.25L2.5,56.33S34,37.53,34.29,38C34.9,39,2.5,60,2.5,60,4.29,63.07,34.29,41.6,34.29,41.6S2,62.81,2.5,63.73c1.58,2.74,31.8-18.37,31.8-18.37S1.54,66.64,2.5,68.3c.72,1.24,31.81-18.36,31.81-18.36S1.17,69.65,2.5,72c.5.87,30.93-19.89,31.81-18.37.55,1-33.42,20-31.81,22.73C2.82,76.87,39.42,55,39.42,55,40.26,56.44,1.13,78.3,2.5,80.66,3.17,81.82,47,55,47,55c.25.43-44.46,30-44.46,30L54.43,55S1.64,88,2.5,89.45c0,0,56.35-40.27,59.7-34.47C64,58.12,2.5,93.47,2.5,93.47L69.17,55C70.58,57.42,2.5,97.25,2.5,97.25,4,99.87,74.73,53.28,75.71,55L2.5,101.49c.36.64,30.87-19.94,31.78-18.35C34.61,83.7,1.3,103,2.5,105c.78,1.35,31.79-18.35,31.79-18.35.93,1.61-31.79,21.9-31.79,21.9C4,111.17,34.29,90.23,34.29,90.23S1.89,111.34,2.5,112.39C3.76,114.58,33.72,93,34.3,94S.66,113.14,2.5,116.32L34.3,98c1.55,2.67-33.54,19.53-31.8,22.54.45.78,30.46-20.7,31.81-18.37C35.37,104,1.5,122.46,2.5,124.19c.71,1.23,31.27-19.32,31.81-18.37.77,1.32-31.81,22.59-31.81,22.59,1.17,2,37.31-25.61,39.07-22.56,0,0-39.92,24.54-38.74,26.59,1.38,2.4,46.06-26.59,46.06-26.59,2.17,3.74-40.66,23.25-38.73,26.59l46.06-26.6c2.33,4-38.19,26.6-38.19,26.6.77,1.34,45.47-27.63,46.07-26.6,1.2,2.07-41.59,23.09-39.57,26.6,0,0,45.68-27.29,46.07-26.6,1.67,2.88-39.09,26.15-38.83,26.59l46.07-26.6c1.72,3-40.47,22.65-38.19,26.6,0,0,46.06-26.61,46.07-26.6.11.18-39.86,26.6-39.86,26.6,2.59,4.48,46-26.71,46.08-26.6s-38.43,26.31-38.26,26.6c.43.74,46.08-26.61,46.08-26.61.87,1.52-38.81,26.58-38.8,26.61,2.3,4,38.44-24.21,39.31-22.7.71,1.22-34.11,21.12-33.2,22.69,0,0,32.17-20.95,33.2-19.17.79,1.36-28,16.79-26.6,19.17,1,1.67,25.37-17.51,26.61-15.36L79.94,132.42s20.19-12,20.34-11.75c.57,1-13.93,11.75-13.93,11.75.38.65,13.57-8.69,13.94-8,.06.1-8.08,7.23-7.61,8,0,0,7.55-4.5,7.61-4.4s-.45,4.17-.32,4.39.28-.27.33-.18"/><path class="cls-1" d="M5,8s4.33-2.6,4.37-2.52S12.15,8,12.15,8c.18.31,4.17-2.88,4.37-2.53.1.18,1.9,2.38,2,2.53L22.89,5.5S25,7.85,25.14,8,29.52,5.5,29.52,5.5c.13.21,2.12,2.43,2.17,2.52.21.37,4.31-2.65,4.38-2.53S38,7.83,38.07,8s4.39-2.53,4.39-2.53c.17.3,3.15,2.44,3.2,2.53.16.27,4.37-2.56,4.39-2.54C50.21,5.77,52.87,8,52.89,8c.25.43,4.39-2.54,4.39-2.54L60.14,8c.29.5,4.39-2.55,4.4-2.54.11.2,2.88,2.3,3,2.54S72,5.47,72,5.47,74.91,7.71,75.08,8c0,0,4.22-2.87,4.41-2.55S82.6,7.94,82.64,8l4.41-2.55s2,2.51,2,2.54a50.84,50.84,0,0,1,4.41-2.54C93.61,5.65,96.18,8,96.18,8c.26.45,4-2.3,4-2.3s-2.32,4.91-2.26,5,2.11-1.58,2.27-1.31c0,.05-2.48,4.66-2.26,5.05,0,0,2.23-1.37,2.27-1.31s-2.26,5.15-2.26,5.15L100.19,17l-2.25,5.3c.11.19,2.13-1.54,2.26-1.3L98,26.43c.13.22,2.16-1.47,2.26-1.3S97.66,30.22,98,30.74c.11.17,2.26-1.31,2.26-1.31"/><path class="cls-1" d="M37.43,35.23c.08.13,4.32-2.76,4.43-2.56s2.26,2.55,2.26,2.55l4.43-2.56c.08.13,1.66,2.32,1.8,2.56,0,.05,4.25-2.87,4.43-2.56s1.81,2.55,1.81,2.55,4.3-2.78,4.43-2.56,2.66,2.41,2.74,2.55c.18.31,4.28-2.82,4.43-2.55,0,.05,2.79,2.3,2.93,2.55,0,0,4.16-3,4.43-2.56,0,0,2.76,2.38,2.85,2.55s4.25-2.88,4.43-2.56c0,0,2.24,2.36,2.35,2.55s4.43-2.55,4.43-2.55c.15.26,2.4,2.55,2.4,2.55s4.25-2.86,4.42-2.56,2,2.55,2,2.55,1.75-1.05,1.77-1"/><path class="cls-1" d="M33.49,32.86s.29-.25.32-.18-.33,3.76-.31,3.79,6.37-4.17,6.58-3.8S33.51,40,33.51,40s2.23-1.34,2.25-1.3-2.34,5.65-2.24,5.82,2.26-1.3,2.26-1.3c.16.28-2.42,5.48-2.25,5.78.08.14,2.13-1.53,2.26-1.3,0,0-2.47,4.57-2.25,4.95,0,0,2.16-1.5,2.27-1.31s-1.5,4.44-1.31,4.77l4.42-2.56,1.9,2.55c.26.46,4.18-3,4.42-2.55.08.15,2,2.54,2,2.54l4.43-2.55s3,2.51,3.06,2.55c.18.3,4.32-2.73,4.42-2.56s3.27,2.49,3.3,2.55l4.42-2.55c0,.08,3.11,2.19,3.32,2.54,0,0,4.42-2.55,4.42-2.55S76.9,55.84,77,56l4.42-2.55,2,2.55c.11.18,4.27-2.83,4.43-2.55s2,2.47,2.07,2.54,4.27-2.81,4.42-2.55L94.94,57a21.16,21.16,0,0,1,2.27-1.3c.2.36-2.44,5-2.26,5.29l2.26-1.3c.17.29-2.25,5.68-2.25,5.68s2.21-1.39,2.26-1.31L95,68.84c0,.07,2.1-1.58,2.26-1.31s-2.37,5.4-2.25,5.61c0,0,2.11-1.55,2.26-1.3s-2.3,4.84-2.25,4.91,2.21-1.37,2.25-1.3"/><path class="cls-1" d="M37.43,83.24c.2.35,4.18-3,4.43-2.56.1.18,3.35,2.45,3.41,2.55s4.43-2.55,4.43-2.55,3.51,2.53,3.52,2.55c.17.29,4.43-2.56,4.43-2.56s2.84,2.24,3,2.55,4.38-2.64,4.43-2.56,1.86,2.36,2,2.55a44.2,44.2,0,0,0,4.43-2.55s2.71,2.26,2.88,2.55c0,0,4.32-2.75,4.43-2.56S81,83.2,81,83.2c.27.46,4.35-2.71,4.43-2.56s3.37,2.46,3.43,2.55,4.25-2.87,4.43-2.56c0,.08,3.54,2.55,3.54,2.55a3.18,3.18,0,0,1,.4-.23"/><path class="cls-1" d="M33.49,80.88c0,.09.32-.19.32-.19s-.42,4.28-.31,4.46,2.2-1.4,2.25-1.3-2.35,5.6-2.24,5.79,2.13-1.51,2.26-1.3c0,0-2.26,5.36-2.25,5.37s2.13-1.54,2.26-1.31-2.49,4.94-2.25,5.34c0,.06,2.26-1.3,2.26-1.3s-2.5,4.49-2.25,4.92c0,0,2.24-1.34,2.26-1.31l-2.26,5c.09.16,2.12-1.56,2.27-1.3s1.63,3,1.77,3.23c.28.48,4.31-2.76,4.43-2.55l3.12,2.54s4.21-2.91,4.42-2.55a39.43,39.43,0,0,1,3.12,2.55c.17.29,4.2-2.94,4.42-2.55s3.28,2.18,3.48,2.54c0,0,4.24-2.87,4.42-2.55,0,0,3.44,2.45,3.49,2.54a49.66,49.66,0,0,0,4.42-2.55c.17.28,2.85,2.55,2.85,2.55l4.42-2.56c.14.24,3.23,2.55,3.23,2.55l4.42-2.55c.14.24,2.06,2.47,2.11,2.54s4.38-2.61,4.42-2.55,2.38,2.47,2.42,2.55,4.32-2.74,4.42-2.55c0,0-1.75,5.06-1.71,5.13l2.26-1.3s-2.5,4.48-2.25,4.9c0,.07,2.26-1.31,2.26-1.31s-2.37,5.17-2.25,5.38l2.26-1.31c.23.4-2.25,5.61-2.25,5.61.14.24,2.16-1.48,2.26-1.3,0,0-2.47,5.11-2.25,5.49s2.26-1.3,2.26-1.3-2.25,5.77-2.25,5.77,2.24-1.33,2.25-1.3"/><path class="cls-1" d="M1,5.7l.32-.19A37.81,37.81,0,0,0,1,9.73s2-1.55,2.2-1.27c0,0-2.42,5.32-2.2,5.69a22,22,0,0,1,2.2-1.27C3.44,13.24.85,17.69,1,18s2.2-1.28,2.2-1.28S.74,21.89,1,22.39c0,0,2.2-1.3,2.21-1.28s-2.5,5-2.21,5.46L3.24,25.3C3.27,25.35,1,30,1,30s2.21-1.28,2.21-1.28C3.48,29.18,1,34,1,34s2.18-1.34,2.21-1.28S1,38.07,1,38.13s2.21-1.28,2.21-1.28S1,41.91,1,41.91c.09.17,2.05-1.56,2.22-1.28.07.13-2.41,5.57-2.22,5.9s2.18-1.36,2.22-1.29L1,51.13a17.5,17.5,0,0,1,2.22-1.28L1,54.86s2.2-1.32,2.22-1.28S1,58.49,1,58.49c.16.28,2.22-1.29,2.22-1.29S1,62.13,1,62.26,3.26,61,3.26,61,.87,66.56,1,66.83a17.69,17.69,0,0,0,2.23-1.29S.84,70.16,1,70.48c0,.08,2.15-1.43,2.23-1.29S.78,74.41,1,74.84c0,0,2.23-1.29,2.23-1.29.12.2-2.42,5.32-2.23,5.64,0,.07,2.23-1.29,2.23-1.29S1,83.5,1,83.5l2.24-1.29S.94,87.84,1,88s2.08-1.57,2.24-1.29S1,92,1,92l2.24-1.3c.1.17-2.24,5.07-2.24,5.07s2.2-1.37,2.24-1.3L1,100a21.65,21.65,0,0,1,2.24-1.29c0,.07-2.41,4.55-2.24,4.84a16.23,16.23,0,0,0,2.25-1.3A44.4,44.4,0,0,1,1,107.12c.13.23,2.25-1.3,2.25-1.3s-2.34,5-2.25,5.1,2.2-1.39,2.25-1.3S.76,114.38,1,114.85l2.25-1.31c.24.41-2.52,5-2.25,5.48,0,.07,2.13-1.51,2.25-1.3s-2.39,4.75-2.25,5,2.21-1.39,2.26-1.31S1,126.94,1,126.94c.08.15,2.13-1.53,2.26-1.3,0,0-2.41,5.26-2.26,5.53a13.42,13.42,0,0,0,2.26-1.31c.19.32.08,3.79.25,4.08L8,131.39a35.41,35.41,0,0,0,3.46,2.55c.08.14,4.35-2.66,4.41-2.55s2,2.3,2.09,2.54c0,0,4.37-2.62,4.41-2.54.14.23,2.82,2.5,2.84,2.54l4.4-2.55c.16.28,3.27,2.18,3.48,2.54l4.4-2.54,1.81,2.54c.28.49,4.4-2.55,4.4-2.54s3.41,2.51,3.42,2.54,4.4-2.54,4.4-2.54,2.89,2.53,2.89,2.53c.29.51,4.28-2.73,4.4-2.53s1.64,2.41,1.71,2.53,4.24-2.8,4.39-2.54,2.07,2.29,2.21,2.53,4.16-2.93,4.39-2.53l1.88,2.53s4.35-2.59,4.39-2.53,2,2.53,2,2.53c.13.22,4.25-2.75,4.38-2.53,0,0,1.81,2.29,1.94,2.52,0,0,4.35-2.58,4.38-2.52s3.3,2.31,3.42,2.52c.28.49,4.14-2.94,4.37-2.53l2.64,2.52c.08.14.88-.51.88-.51"/><path class="cls-1" d="M169.46,63.9c1.92,3.33,36.85-21.27,36.85-21.27s-28.6,18.9-27.78,20.31c1.57,2.72,30.69-19.09,31.28-18.06,0,0-25.92,18.12-25.34,19.13,1.36,2.36,27.44-18.72,28.69-16.56,0,0-24.75,18.29-24.72,18.34s26.2-18.07,27.47-15.87c.47.81-25.6,16-24.37,18.12.33.56,26.82-15.48,26.82-15.48s-26,15.39-24.61,17.83c0,0,26.42-15.63,26.58-15.35L195.52,73c.81,1.42,25.23-17.77,26.62-15.37.87,1.52-26.33,16.57-25.08,18.74,1.51,2.61,26.33-16.7,27-15.58,0,0-26,19.23-26,19.34s26.54-18,27.7-16c0,.06-28.9,17.16-27.22,20.06,1,1.67,27.39-18.78,28.68-16.56,1.42,2.48-30.5,18.22-28.79,21.18,0,0,28.87-19.24,30-17.31,0,0-31.48,21.67-31,22.47.55,1,32-18.44,32-18.44,1.82,3.15-34.83,24.29-34.83,24.29L229.94,79.4c3,5.26-76.07,48.33-76.07,48.33l76.39-44.11c3.74,6.47-74.33,44-73.19,46,.39.68,72.72-43.17,73.24-42.28,0,0-70.63,42.27-69.57,44.11,0,0,67.89-42.59,69.36-40,0,0-65.7,40.66-65.08,41.73l64.5-37.24s-63.47,32.8-60.24,38.38c.86,1.49,59.37-34.28,59.37-34.28S173.51,133,174.8,135.18L227.1,105c2.1,3.63-45.47,30.56-45.47,30.56,2.07,3.58,41.29-27.31,42.79-24.71,0,0-35.75,21.28-34.21,24s29.92-17.27,29.92-17.27"/><path class="cls-1" d="M119.64,39.42l.33-.19a37.7,37.7,0,0,0-.33,4.22s6.87-5,7.32-4.23c0,0-7.72,8-7.32,8.65,0,0,14.74-9.1,15-8.66.75,1.28-15.6,11.45-15,12.5,1,1.73,21.66-12.51,21.66-12.51.27.47-23,14.67-21.66,16.91.12.2,27.25-16,27.35-15.79,0,0-29,17.08-27.35,20L148.38,43.7c.22.37-28.87,19.84-28.74,20.06.34.59,43.08-24.88,43.08-24.88,2.22,3.84-43.08,28.87-43.08,28.87.68,1.18,53.54-32.37,54.17-31.28,0,0-54.54,34.74-54.17,35.38.59,1,62-35.77,62-35.77.94,1.63-61.95,39.55-61.95,39.55,2.21,3.83,64-45.8,67.87-39.18.94,1.63-70.31,39.57-67.87,43.8,3.16,5.46,72.86-44.6,74-42.71l-74,47.31s77.49-48.77,79.24-45.75L119.64,88.58s82.33-49,83-47.91c1.54,2.68-83,51.54-83,51.54,2.41,4.18,43-24.81,43-24.81s-43.66,27.36-43,28.58c1.84,3.18,37.1-21.42,37.1-21.42s-38.21,24.07-37.1,26c.79,1.38,35.25-20.35,35.25-20.35s-36.71,21.47-35.25,24c.55,1,33.81-21.73,34.76-20.07.6,1-36.51,21.41-34.76,24.43.3.53,34.78-20.08,34.78-20.08.79,1.37-36.07,22.2-34.78,24.43.53.93,35.34-20.41,35.34-20.41.2.35-35.34,24.72-35.34,24.72l36.47-21S119,120.64,119.64,121.7c0,0,36.11-25.83,38.27-22.09,1.18,2-38.27,26.12-38.27,26.12l40.47-23.37c.88,1.51-40.47,27.14-40.47,27.14.89,1.55,42.39-25.81,43-24.81l-43,29.05c.53.92,45.21-29.17,46.54-26.87.47.82-48.27,27.42-46.54,30.42C120.87,139.42,170,108.2,170,108.2c1.45,2.51-50.39,32.64-50.39,32.64,2.57,4.46,55.39-32,55.39-32s-56.42,34-55.39,35.78c2.51,4.34,62.46-38.69,63.6-36.72,1.25,2.17-67.17,34.47-63.6,40.65l31.73-18.32c1.54,2.66-33.46,19.49-31.73,22.49.45.78,30.39-20.65,31.73-18.32,1.06,1.83-32.72,20.3-31.73,22,.71,1.23,31.2-19.27,31.74-18.33.76,1.32-31.74,22.55-31.74,22.55,1,1.66,30.31-20.82,31.75-18.33,0,0-32.73,20.86-31.75,22.56s31.75-18.34,31.75-18.34c1.78,3.08-33,19.63-31.43,22.38l31.44-18.15c1.48,2.57-23.54,18.13-23.54,18.13.4.7,23.24-14.13,23.54-13.59.55.94-18,12-17,13.58,0,0,16.88-10.09,17-9.83.49.84-9.85,9.69-9.78,9.82l9.79-5.65c.21.38-2.18,5.13-1.89,5.63l1.89-1.09"/><path class="cls-1" d="M170.08,65.29s5.8-3.49,5.86-3.39,2.69,2.55,2.69,2.55c.14.25,3.22-2.24,3.39-2l1.5,2.8,2.6-1.49s1.15,2.92,1.25,3.1a11.9,11.9,0,0,0,2.16-1.25c.13.22.75,3.23.8,3.32s1.91-1.19,1.95-1.13.2,3.3.31,3.5c0,0,1.84-1.06,1.84-1.06.18.33.16,4.18.21,4.26s1.79-1.05,1.8-1a33.19,33.19,0,0,1-.44,4.43c.13.22,1.86-1.07,1.86-1.07l-1,4.78c.15.26,2-1.15,2-1.14.16.27-1.9,4.92-1.7,5.26.1.18,2.16-1.24,2.16-1.24s-2.79,5.31-2.51,5.79c0,0,2.32-1.61,2.44-1.41.35.6-4,6.5-3.94,6.63l3.09-1.79c.06.09-7.47,7.87-7.4,8s5.45-3.4,5.56-3.21"/><path class="cls-1" d="M161,67.16c.11.2,6.89-4.38,7.06-4.08.77,1.32-12,10.77-12,10.77l4.84-2.79c.23.4-6.83,6.56-6.41,7.29,0,0,2.9-2,3-1.75.24.42-3.69,5.73-3.69,5.73a17,17,0,0,1,2.48-1.43c.2.35-2.77,5.42-2.63,5.65s2.12-1.42,2.2-1.27-2.08,5-1.87,5.33c0,0,1.88-1.42,2-1.18a47.45,47.45,0,0,0-1.21,4.9s1.81-1.27,1.91-1.1a35.64,35.64,0,0,0-.67,4.28s1.84-1.06,1.84-1.06a29.87,29.87,0,0,1-.12,4s1.75-1.21,1.84-1.06a35,35,0,0,1,.25,3.58c.08.15,1.87-1.13,1.89-1.1.2.34,1,3.61,1.07,3.78s2.05-1.28,2.09-1.21l1.7,3.43c.13.22,2.5-1.6,2.57-1.48s2.35,2.88,2.42,3,3.34-2.41,3.55-2c.05.09,3.48,2.46,3.48,2.46.67,1.16,16.81-10.31,17.07-9.86"/><path class="cls-1" d="M122.15,40.25c.14.24,4.2-2.84,4.38-2.52l1.89,2.51s4.23-2.78,4.38-2.52l1.71,2.52c.1.17,4.34-2.61,4.38-2.53s3.41,2.4,3.47,2.52c.27.47,4.39-2.53,4.39-2.53.11.2.11,4.14.23,4.35s1.79-1.3,1.9-1.1a29.19,29.19,0,0,0-.7,4.06c0,.06,10.92-7.34,11.37-6.57.07.12,4.8.79,5,1.13l7.65-4.41,2.3,2.3c.3.51,4.7-3.33,5-2.86.08.15,2.11,2.47,2.11,2.47l4-2.32s2.74,2.69,2.76,2.72c.14.23,3.21-2,3.29-1.9s2.52,2.92,2.55,3L197,36.92c0,.07,2.06,2.83,2.25,3.16,0,0,2.5-1.45,2.5-1.45s1.31,2.95,1.42,3.13l2.29-1.32,1,3.1c.06.1,2.08-1.4,2.17-1.25s.86,3.15.9,3.22a15.08,15.08,0,0,1,2.06-1.19l.83,3.37a19.5,19.5,0,0,1,2-1.14c.14.22.65,3.36.76,3.55L217.11,49c.11.2.75,3.94.75,3.94s1.82-1.14,1.87-1.07l.06,3.49c0,.06,1.7-1.3,1.84-1.06s.21,4,.29,4.14,1.7-1.26,1.82-1-.24,3.68-.21,3.74,1.78-1.11,1.82-1l-.13,4.32a15.83,15.83,0,0,1,1.83-1.06c.22.38-.31,4.78-.31,4.78S228.57,67,228.6,67s-.81,4.7-.72,4.84a13.8,13.8,0,0,1,1.9-1.1s-1.15,4.7-1.07,4.83,1.84-1.33,1.95-1.13-1.45,4.5-1.45,4.5l2-1.17c.06.1-1.72,4.5-1.72,4.5.09.17,2-1.42,2.1-1.21.21.37-2,5.24-2,5.24s2.2-1.26,2.2-1.26l-2.39,5.64,2.32-1.34-2.81,5.39s2.37-1.65,2.49-1.44c0,0-3.58,5.32-3.37,5.69l2.71-1.57s-4.41,6.54-4.3,6.72l3.08-1.78s-5.9,7.62-5.83,7.74c.19.33,3.78-2.24,3.8-2.19s-7.73,7.2-7.39,7.8c.16.27,4.67-3.13,4.86-2.8,0,0-12.54,10.72-12.54,10.72.48.84,8.74-5.05,8.74-5.05"/><path class="cls-1" d="M154,129.6c.11.19,2-1.5,2.18-1.26l1.79,3.49a17.71,17.71,0,0,0,2.35-1.36c0,.06,2.12,3.34,2.13,3.35.11.19,2.59-1.49,2.59-1.49s2,2.74,2.18,3c.08.14,3-1.82,3-1.75s1.6,2.51,1.71,2.7a33.19,33.19,0,0,0,3.47-2s2.57,2.35,2.73,2.63c0,0,4.15-2.64,4.25-2.45s2.49,2.39,2.49,2.39c.34.58,5.65-3.52,5.76-3.33s5.06,1.46,5.13,1.57c.23.4,21.25-14.13,22.05-12.73"/><path class="cls-1" d="M150.66,128.69c.12.21,3.15-1.82,3.15-1.82.15.27-3.15,6-3.15,6,.14.24,2.08-1.5,2.21-1.27,0,0-2.21,5.4-2.21,5.4s2.19-1.32,2.21-1.28-2.3,5-2.21,5.15,2.22-1.28,2.22-1.28l-2.22,5.75,2.23-1.28-2.23,5.84,2.23-1.29c.25.43-2.38,4.73-2.23,5s2.18-1.39,2.24-1.29c.24.42-2.24,5.76-2.24,5.76.11.19,2.12-1.52,2.24-1.3,0,0-2.25,5.17-2.24,5.18.11.18,2.25-1.3,2.25-1.3.13.22-2.5,5.47-2.25,5.91.16.27,2.24-1.33,2.26-1.31"/><path class="cls-1" d="M118.14,37.92l.32-.19a40.36,40.36,0,0,0-.32,4.22s2-1.55,2.2-1.27c0,0-2.42,5.32-2.2,5.69a24.21,24.21,0,0,1,2.2-1.28c.22.37-2.38,4.82-2.2,5.12s2.21-1.28,2.21-1.28-2.5,5.18-2.21,5.68c0,0,2.2-1.3,2.21-1.28s-2.5,5-2.21,5.46l2.21-1.28c0,.06-2.23,4.71-2.21,4.75S120.35,61,120.35,61c.25.42-2.21,5.27-2.21,5.27s2.18-1.34,2.21-1.28-2.24,5.32-2.21,5.38,2.22-1.28,2.22-1.28-2.22,5.06-2.22,5.06c.09.17,2.06-1.56,2.22-1.28s-2.41,5.57-2.22,5.9,2.18-1.36,2.22-1.29l-2.22,5.89a17.5,17.5,0,0,1,2.22-1.28l-2.22,5s2.2-1.32,2.22-1.28-2.22,4.91-2.22,4.91c.16.28,2.23-1.29,2.23-1.29s-2.31,4.93-2.23,5.06,2.23-1.29,2.23-1.29-2.39,5.59-2.23,5.86a17.69,17.69,0,0,0,2.23-1.29s-2.42,4.62-2.23,4.94c0,.08,2.15-1.43,2.23-1.29s-2.48,5.22-2.23,5.65c0,0,2.23-1.29,2.23-1.29.12.2-2.42,5.32-2.23,5.64,0,.07,2.24-1.29,2.24-1.29s-2.24,5.6-2.24,5.6l2.24-1.29s-2.33,5.63-2.24,5.77,2.08-1.57,2.24-1.29-2.24,5.31-2.24,5.31l2.24-1.29c.1.17-2.24,5.07-2.24,5.07s2.2-1.37,2.24-1.3l-2.24,5.54c0,.06,2.16-1.44,2.25-1.29s-2.42,4.55-2.25,4.84a16.23,16.23,0,0,0,2.25-1.3,44.4,44.4,0,0,1-2.25,4.85c.13.23,2.25-1.3,2.25-1.3s-2.34,5-2.25,5.1,2.2-1.39,2.25-1.3-2.52,4.76-2.25,5.23l2.25-1.31c.24.41-2.51,5-2.25,5.48,0,.07,2.13-1.51,2.25-1.3s-2.39,4.75-2.25,5,2.21-1.39,2.26-1.31-2.26,5.53-2.26,5.53c.09.15,2.13-1.53,2.26-1.3,0,0-2.41,5.26-2.26,5.52a12.38,12.38,0,0,0,2.26-1.3c.28.48-2.51,5.11-2.26,5.53l2.26-1.3a40.51,40.51,0,0,1,.74,4.11c.09.15,4.36-2.66,4.42-2.55s2,2.3,2.1,2.54c0,0,4.37-2.62,4.41-2.54s2.83,2.49,2.85,2.53l4.4-2.54c.16.27,3.28,2.16,3.49,2.53l4.39-2.54,1.84,2.53c.25.43,3.87-2.26,3.88-2.25"/><path class="cls-1" d="M246.73,39.39c.05.09.33-.19.33-.19s-.44,4.28-.33,4.47c.41.71,7.59-4.75,7.74-4.48,0,0-8,8.6-7.74,9,.75,1.3,14.86-10.18,15.55-9,0,0-15.57,13-15.55,13s21.56-14.87,22.61-13c.43.76-23.76,15.1-22.61,17.1.36.62,29.62-17.11,29.62-17.11S245.06,57,246.73,59.9c0,0,31.59-18.69,31.79-18.35l-31.79,22c1,1.67,30.14-21.21,31.79-18.36,1.08,1.89-33.35,19.91-31.79,22.62,1.77,3.06,31-19.68,31.79-18.36,0,0-31.86,22.58-31.79,22.7S277.19,51.5,278.52,53.8c0,.07-33.72,19.35-31.79,22.7,1.07,1.85,30.37-20.81,31.79-18.35,1.57,2.71-33.67,19.66-31.79,22.91,0,0,30.61-20.41,31.79-18.36,0,0-32.26,22.1-31.79,22.92s31.79-18.36,31.79-18.36c1.67,2.89-31.79,22.54-31.79,22.54l31.8-18.35c1.31,2.28-31.8,22.77-31.8,22.77l31.8-18.36c1.67,2.89-32.31,21.23-31.8,22.12.17.3,31.57-18.75,31.8-18.36,0,0-32.3,21.44-31.8,22.3,0,0,31.12-19.54,31.8-18.36,0,0-32.11,22-31.8,22.51l31.8-18.36s-33.54,18.94-31.8,22c.47.81,31.8-18.36,31.8-18.36S246,112.4,246.73,113.75l31.8-18.37c1.5,2.59-31.8,22.68-31.8,22.68,1.54,2.67,30.68-20.31,31.8-18.37,0,0-33.24,20.07-31.8,22.56,1.71,3,31.81-18.36,31.81-18.36.42.73-31.81,22.84-31.81,22.84s31.64-18.66,31.81-18.36c1,1.82-31.81,22-31.81,22,.63,1.1,31.81-18.36,31.81-18.36,1.33,2.31-29.33,19.08-28.56,20.41,1.05,1.82,26.94-19.3,28.56-16.49,0,0-21.38,16.45-21.36,16.48s20.42-14,21.36-12.33c0,0-13.87,12.21-13.81,12.33.36.61,13.31-8.84,13.81-8,0,0-6.8,7.84-6.72,8,.28.48,6.53-4.21,6.72-3.88.1.16-.42,3.7-.32,3.87,0,0,.28-.26.32-.18"/><path class="cls-1" d="M246.73,2.75l.33-.19a37.51,37.51,0,0,0-.33,4.22s6.87-5,7.32-4.23c0,0-7.72,8-7.32,8.65,0,0,14.73-9.09,15-8.66.74,1.29-15.59,11.44-15,12.5,1,1.73,21.65-12.5,21.65-12.5.26.46-22.94,14.66-21.65,16.89.13.23,29.17-17.08,29.28-16.9,0,0-31.06,18-29.28,21.09L278.52,5.27c.24.41-31.93,21.58-31.79,21.81.25.45,31.79-18.35,31.79-18.35C280,11.34,249.8,29.3,249.8,29.3c.36.63,28.39-17.17,28.73-16.58,0,0-21.77,16.31-21.62,16.58s21.62-12.49,21.62-12.49c.25.44-15,12.48-15,12.48.51.88,14.18-10.21,15.06-8.69.13.22-7.4,8.1-7.06,8.68s6.95-4.27,7.06-4.07l-.32,4.07s.3-.23.32-.19"/><path class="cls-1" d="M249.27,40.25c.14.24,4.2-2.84,4.38-2.53,0,0,1.88,2.5,1.89,2.53s4.24-2.8,4.39-2.54l1.7,2.53c.1.17,4.36-2.61,4.4-2.54s3.38,2.41,3.45,2.53c.27.47,4.41-2.55,4.41-2.55.11.2,3.26,2.34,3.38,2.54s2.56-1.83,2.72-1.57c0,0-2.48,4.58-2.27,5,0,0,2.16-1.5,2.27-1.31s-2.49,4.94-2.26,5.32l2.26-1.3-2.26,4.94c.15.27,2.12-1.55,2.26-1.31s-2.26,5-2.26,5L280,53.64s-2.3,5.57-2.27,5.62S279.94,57.85,280,58s-2.31,5.67-2.26,5.76L280,62.4c.07.12-2.56,5.25-2.26,5.76,0,0,2.26-1.3,2.26-1.3s-2.44,4.94-2.26,5.25l2.27-1.3-2.27,5c.06.1,2.18-1.46,2.27-1.31s-2.33,4.93-2.26,5,2.17-1.46,2.26-1.3l-2.26,5.15A24.14,24.14,0,0,1,280,82.07c.21.36-2.43,5-2.26,5.3l2.27-1.3c.17.29-2.27,5.68-2.27,5.68S280,90.36,280,90.44l-2.26,4.84c0,.07,2.1-1.59,2.26-1.31s-2.38,5.4-2.26,5.61c0,0,2.12-1.55,2.26-1.3s-2.3,4.84-2.26,4.92,2.22-1.38,2.26-1.31l-2.25,5.55a19.45,19.45,0,0,1,2.26-1.3c.29.5-2.26,5.9-2.26,5.9s2.22-1.37,2.26-1.3-2.36,5.54-2.26,5.72a18.18,18.18,0,0,1,2.26-1.31s-2.35,5.36-2.26,5.51,2.14-1.52,2.27-1.31c.23.4-2.26,5-2.26,5L280,123c.06.11-2.26,4.8-2.26,4.8.1.18,2.14-1.52,2.26-1.3"/><path class="cls-1" d="M245.26,37.92c0,.07.27-.28.33-.19s-.4,4.6-.33,4.71a15.51,15.51,0,0,0,2.2-1.27c0,.09-2.21,5.83-2.2,5.85s2.21-1.27,2.21-1.27-2.49,5.09-2.21,5.57c.06.11,2.18-1.33,2.21-1.28.11.2-2.4,4.64-2.21,5a20.16,20.16,0,0,0,2.21-1.28s-2.47,5.05-2.21,5.49a18.67,18.67,0,0,1,2.21-1.28c.21.35-2.21,5.11-2.21,5.11.15.26,2.17-1.37,2.22-1.28s-2.3,5.67-2.22,5.81,2.12-1.46,2.22-1.28-2.22,5.87-2.22,5.87,2.2-1.33,2.22-1.28-2.37,4.78-2.22,5,2.13-1.45,2.23-1.29l-2.23,5.79c.09.16,2.23-1.29,2.23-1.29.2.34-2.42,5.47-2.23,5.8s2.17-1.4,2.23-1.29S245,88,245.26,88.43a13.75,13.75,0,0,1,2.23-1.29l-2.23,5.34s2.1-1.54,2.24-1.3-2.31,4.92-2.24,5,2.19-1.39,2.24-1.3-2.25,5.76-2.24,5.77c.09.17,2.24-1.29,2.24-1.29.25.43-2.24,4.79-2.24,4.79s2.15-1.47,2.24-1.3c.28.48-2.52,4.8-2.24,5.29a21.88,21.88,0,0,0,2.25-1.3c.11.2-2.3,5-2.25,5.1s2.25-1.3,2.25-1.3-2.28,5.55-2.25,5.61a17.3,17.3,0,0,0,2.25-1.3c.05.07-2.25,5.2-2.25,5.2.12.21,2.26-1.3,2.26-1.3L245.26,124s2.22-1.37,2.26-1.31c.19.34-2.26,4.86-2.26,4.86s2.14-1.51,2.26-1.3-2.26,4.9-2.26,4.9l2.26-1.31c.08.13-1.08,3.78-.89,4.11s4.42-2.55,4.42-2.55,2.44,2.35,2.55,2.54c0,0,4.38-2.6,4.41-2.55.13.22,3.18,2.54,3.18,2.54.18.32,4.23-2.84,4.4-2.55s1.93,2.51,2,2.54,4.31-2.69,4.4-2.54l1.62,2.53s6.38-3.93,6.48-3.75c0,0-.39,3.61-.32,3.74s.29-.25.32-.19"/><path class="cls-1" d="M249.28,3.61c.25.45,4.37-2.53,4.37-2.53s3,2.36,3,2.52c.25.43,4.3-2.7,4.39-2.53,0,0,3.34,2.39,3.42,2.52.24.41,4.19-2.91,4.4-2.54l2.66,2.54S275.74.64,276,1c.06.09,1.61,2.78,1.75,3,0,.06,2.27-1.31,2.27-1.31s-2.51,4.49-2.26,4.93c0,0,2.25-1.34,2.27-1.31l-2.26,5c.09.15,2.11-1.56,2.26-1.31s-2.49,5.15-2.25,5.56,2.19-1.42,2.26-1.3-2.26,5.62-2.25,5.64,2.14-1.51,2.26-1.3c0,0-2.55,5.12-2.25,5.65.1.16,2.13-1.53,2.26-1.31"/><path class="cls-1" d="M245.26,1.28l.33-.19a37.51,37.51,0,0,0-.33,4.22s2-1.56,2.2-1.28c0,0-2.41,5.32-2.2,5.7a24.37,24.37,0,0,1,2.21-1.28c.22.36-2.38,4.82-2.21,5.12s2.22-1.29,2.22-1.29S245,17.47,245.26,18c0,0,2.22-1.3,2.23-1.29s-2.52,5-2.23,5.48l2.25-1.3c0,.06-2.27,4.73-2.25,4.76s2.25-1.3,2.25-1.3c.25.43-2.25,5.3-2.25,5.3s2.3-1.41,2.34-1.35,2.67,2.5,2.7,2.54,4.41-2.55,4.41-2.55,2.16,2.54,2.16,2.54c.17.28,4.13-3,4.41-2.55.05.09,3.47,2.3,3.6,2.53s4.33-2.67,4.4-2.54l3.61,2.53s7-4.42,7.15-4.13l-.67,4.12s.66-.41.67-.39"/><path class="cls-1" d="M301.14,53.6l.33-.18a37.51,37.51,0,0,0-.33,4.21s6.86-5,7.31-4.22c0,0-7.71,8-7.31,8.64,0,0,14.72-9.08,15-8.64.74,1.28-15.58,11.43-15,12.48,1,1.73,21.62-12.48,21.62-12.48.27.47-22.91,14.65-21.62,16.88.13.22,29.14-17.07,29.25-16.88,0,0-31,18-29.25,21.07l36.5-21.08c.27.47-36.65,24.27-36.5,24.54.34.59,42.5-24.54,42.5-24.54,2,3.53-39.43,26.76-39.43,26.76.58,1,45.81-27.7,46.35-26.76,0,0-39.52,26.29-39.25,26.76.45.77,46.36-26.76,46.36-26.76.61,1.06-39.8,26.76-39.8,26.76,1.52,2.62,43.74-31.31,46.36-26.77.55,1-39.77,24.32-38.36,26.77,2,3.44,45.66-28,46.35-26.77L333.85,80.15s45.33-28.54,46.36-26.76l-39.9,26.76s45.41-27.06,45.78-26.43c.75,1.31-39.49,26.43-39.49,26.43,2.22,3.85,39.49-22.8,39.49-22.8s-33.51,21.85-33,22.8c1.64,2.83,33-19,33-19s-25.81,17.7-25,19c.57,1,25-14.46,25-14.46s-19.53,13.06-18.72,14.46c.3.52,18.2-11.72,18.73-10.81.22.38-11.8,9.7-11.16,10.81.1.17,11.16-6.45,11.16-6.45.14.24-3.86,6.06-3.63,6.45.06.11,3.64-2.11,3.64-2.11"/><path class="cls-1" d="M303.69,54.47c.25.44,4.36-2.53,4.36-2.53s2.95,2.36,3,2.52c.25.43,4.29-2.68,4.38-2.52,0,0,3.35,2.39,3.42,2.52.24.41,4.17-2.9,4.38-2.53L326,54.46s4.15-2.93,4.38-2.53c.05.09,2.48,2.27,2.62,2.53.06.1,4.39-2.54,4.39-2.54s1.75,2.28,1.89,2.53c0,0,4.36-2.58,4.39-2.53l1.93,2.53c.15.26,4.14-3,4.4-2.54.11.19,2.83,2.27,3,2.54.28.48,4.28-2.75,4.4-2.54,0,0,3.13,2.52,3.14,2.54s4.19-2.91,4.4-2.55A39.53,39.53,0,0,1,368,54.44c.17.29,4.19-2.93,4.41-2.54s3.29,2.18,3.49,2.54c0,0,4.23-2.87,4.42-2.55,0,0,3.43,2.46,3.48,2.55a41.2,41.2,0,0,0,3.76-2.17c.25.44-2.26,5.49-2.26,5.49l2.27-1.31c.2.36-2.26,5.72-2.26,5.72l2.27-1.31c.24.41-2.33,4.93-2.26,5.06s2.24-1.34,2.26-1.31-2.32,5.13-2.25,5.25a18.11,18.11,0,0,1,2.26-1.3s-2.29,5.36-2.25,5.45l2.26-1.31s-2.49,4.48-2.25,4.9c0,.07,2.26-1.3,2.26-1.3"/><path class="cls-1" d="M299.67,52.13,300,52a37.51,37.51,0,0,0-.33,4.21s2-1.55,2.2-1.27c0,0-2.41,5.32-2.2,5.69a21.2,21.2,0,0,1,2.22-1.27c.21.36-2.39,4.81-2.22,5.11s2.23-1.28,2.23-1.28-2.52,5.19-2.23,5.68c0,0,2.23-1.31,2.24-1.29s-2.53,5-2.24,5.48l2.25-1.3c0,.06-2.27,4.73-2.25,4.76s2.25-1.3,2.25-1.3c.25.43-2.25,5.29-2.25,5.29S302,79.05,302,79.11s2.67,2.51,2.69,2.55,4.41-2.55,4.41-2.55,2.15,2.55,2.15,2.55c.17.28,4.13-3,4.42-2.55.05.09,3.45,2.31,3.58,2.54s4.33-2.67,4.41-2.54l3.58,2.54s4.29-2.74,4.41-2.55l2.06,2.54s4.36-2.61,4.4-2.54S340,81.64,340,81.64c.28.48,4.4-2.54,4.4-2.54s2.09,2.45,2.14,2.53c.24.43,4.39-2.53,4.39-2.53s3.43,2.34,3.54,2.53,4.39-2.54,4.39-2.54,1.83,2.34,1.94,2.53,4.25-2.77,4.38-2.53,3,2.24,3.19,2.53c0,.07,4.38-2.53,4.38-2.53s3,2.31,3.15,2.52,4.38-2.52,4.38-2.52,3.1,2.52,3.1,2.52l4.23-2.45"/><path class="cls-1" d="M451.25,66c.79,1.37,18.59-13.08,19.6-11.32.39.68-12,10.92-11.75,11.31s11.76-6.79,11.76-6.79-3.82,6.75-3.81,6.78c.15.25,3.81-2.2,3.81-2.2"/><path class="cls-1" d="M400.87,39.39c.05.09.32-.19.32-.19s-.43,4.28-.32,4.46c.41.72,7.59-4.74,7.75-4.47,0,0-8,8.59-7.74,9,.75,1.3,14.87-10.18,15.56-9,0,0-15.58,13-15.56,13s46.48-32,48.7-28.11c.9,1.55-51.07,28-48.7,32.16.59,1,48.71-28.12,48.71-28.12s-51.39,27.08-48.7,31.74c0,0,48.41-28.63,48.7-28.12l-48.7,31.76c1.48,2.55,46.2-32.46,48.71-28.12,1.52,2.65-47.7,26.73-45.51,30.53,2.56,4.44,45.22-28.65,46.32-26.74,0,0-38.85,26.58-38.77,26.73S456,35.86,458,39.19c.05.09-42.62,23.38-40.21,27.56,1.59,2.76,45.64-31.23,47.76-27.57,2.3,4-50.51,27.36-47.75,32.13,0,0,51.12-34,53.08-30.65,0,0-53.85,33.87-53.08,35.2.9,1.56,53.08-30.64,53.08-30.64,2.72,4.71-53.08,34.83-53.08,34.83L470.84,49.4c2.15,3.71-53.07,35.06-53.07,35.06l53.08-30.65c2.73,4.73-53.92,33-53.08,34.41.17.3,31.57-18.75,31.8-18.36,0,0-32.3,21.44-31.8,22.3,0,0,31.12-19.54,31.8-18.35,0,0-32.11,22-31.79,22.5L449.57,78s-33.53,18.94-31.79,22c.46.8,31.79-18.36,31.79-18.36S417,102.63,417.78,104l31.79-18.35C451.05,88.2,418,108.17,418,108.17c1.53,2.66,30.46-20.17,31.58-18.23,0,0-32.3,19.61-30.9,22,1.66,2.88,30.9-17.84,30.9-17.84.4.69-29.63,21.59-29.63,21.59s29.53-17.42,29.69-17.14c.95,1.63-28.32,20-28.32,20,.59,1,29.22-16.87,29.22-16.87,1.27,2.22-28.07,18.43-27.33,19.7,1.09,1.89,28-20,29.66-17.12,0,0-27.24,19.81-27.21,19.86s30.6-20.88,32-18.47c0,0-29.09,20.84-29,21.07.92,1.58,35.23-23.3,36.51-21.08,0,0-33.44,22.71-33.14,23.22,1.54,2.67,39.19-25.06,40.24-23.23s-37.15,23.15-36,25.15c0,0,34.41-23.78,36.1-20.85.71,1.22-31.47,22-31.47,22,1.16,2,30.58-19.74,31.48-18.18.42.73-24.48,18.62-24.48,18.62.18.32,23.88-15.18,24.48-14.13,0,0-18.65,13.2-18.11,14.13.75,1.3,18.11-10.46,18.12-10.46.09.17-11.47,10.46-11.47,10.46s10.91-7.59,11.47-6.62c.26.45-5.43,6.55-5.39,6.62.18.31,5.26-3.34,5.39-3.11"/><path class="cls-1" d="M417.78,7.17l.33-.19a37.7,37.7,0,0,0-.33,4.22s6.87-5,7.32-4.23c0,0-7.72,8-7.32,8.65,0,0,14.73-9.09,15-8.65.74,1.28-15.6,11.44-15,12.49,1,1.73,21.65-12.5,21.65-12.5.27.47-22.94,14.66-21.65,16.9C417.91,24.08,447,6.77,447.06,7c0,0-31.06,18-29.28,21.09L449.57,9.69c.24.41-31.92,21.58-31.79,21.82.26.44,31.79-18.36,31.79-18.36C451.24,16,417.78,35.5,417.78,35.5c.4.7,31.42-19,31.8-18.36"/><path class="cls-1" d="M420.33,8s4.33-2.6,4.38-2.53S427.45,8,427.45,8c.17.31,4.18-2.89,4.39-2.53.1.17,1.89,2.38,2,2.53l4.4-2.54s2.14,2.35,2.24,2.53,4.41-2.55,4.41-2.55C445,5.68,447,7.91,447,8c.2.35,4-2.44,4-2.32s-2.44,4.66-2.26,5c0,0,2.27-1.31,2.27-1.31.26.46-2.34,5.56-2.26,5.69s2.26-1.33,2.26-1.31c.26.44-2.28,5.43-2.25,5.47.14.26,2.26-1.3,2.26-1.3l-2.26,5.48c.17.29,2.26-1.32,2.27-1.31.17.31-2.47,5.22-2.26,5.59.11.18,2.27-1.31,2.27-1.31s-2.53,5.19-2.26,5.65c0,0,2.16-1.5,2.27-1.31.27.48-2.32,5.56-2.26,5.66L451.09,35c0,.05-2.29,5-2.26,5a45.16,45.16,0,0,1,4.05-2.33c.12.19,2.71,2.53,2.71,2.53.28.49,4.43-2.55,4.43-2.55s2,2.47,2.05,2.53,4.16-3,4.43-2.55c0,0,2,2.3,2.1,2.54,0,0,3.65-2.24,3.7-2.14s-2.25,5.14-2.25,5.14l2.26-1.3-2.25,5.3c.11.19,2.12-1.54,2.26-1.31l-2.25,5.44c.12.22,2.16-1.47,2.26-1.31s-2.55,5.09-2.25,5.61c.1.18,2.26-1.3,2.26-1.3.21.37-2.25,5.49-2.25,5.49s2.12-1.53,2.25-1.3-2.28,5.23-2.24,5.3c.14.25,2.16-1.46,2.25-1.3"/><path class="cls-1" d="M452.72,67.45c.07.13,4.34-2.78,4.46-2.58s2.25,2.56,2.25,2.56l4.46-2.58c.07.13,1.65,2.32,1.79,2.56.05.08,6.42-4.29,6.67-3.85a30.19,30.19,0,0,1-.41,3.83s.39-.29.42-.24"/><path class="cls-1" d="M448.78,65.08s.29-.25.32-.18-.33,3.77-.32,3.79,6.39-4.19,6.61-3.81-6.6,7.32-6.6,7.32S451,70.86,451,70.9s-2.34,5.65-2.24,5.82,2.24-1.3,2.24-1.3c.16.29-2.41,5.48-2.23,5.78.07.14,2.1-1.51,2.23-1.29,0,0-2.44,4.56-2.23,4.94,0,0,2.12-1.48,2.23-1.29s-2.44,4.91-2.22,5.3L451,87.58l-2.21,4.91c.15.26,2.07-1.51,2.21-1.28s-2.21,5-2.21,5L451,94.9s-1.82,5.3-1.79,5.35,1.89-1.21,1.94-1.12-.09,4.42-.06,4.48l1.91-1.1c0,.08,1.39,3.22,1.58,3.55,0,0,3.18-1.84,3.18-1.84s2.41,2.3,2.52,2.5l4.36-2.52,2,2.52c.11.18,4.24-2.82,4.4-2.54s.47,3.37.51,3.44,2.18-1.46,2.27-1.3l-2.26,5.15a22.26,22.26,0,0,1,2.27-1.31c.21.36-2.43,5-2.26,5.3l2.27-1.31c.17.3-2.25,5.68-2.25,5.68s2.21-1.39,2.26-1.31l-2.26,4.83c.05.07,2.1-1.58,2.26-1.3s-2.37,5.39-2.25,5.6c0,0,2.12-1.55,2.26-1.3"/><path class="cls-1" d="M399.37,37.92c0,.07.28-.28.33-.19s-.39,4.59-.32,4.7a15.28,15.28,0,0,0,2.25-1.3c.05.09-2.26,5.86-2.25,5.88.1.17,2.26-1.3,2.26-1.3s-2.52,5.11-2.25,5.59c.07.11,2.23-1.35,2.26-1.3.12.2-2.44,4.66-2.25,5a21.09,21.09,0,0,0,2.26-1.31s-2.51,5.07-2.25,5.52a18.18,18.18,0,0,1,2.26-1.31c.2.35-2.25,5.13-2.25,5.13.15.27,2.21-1.39,2.26-1.31s-2.17,5.61-2.09,5.74,4.25-2.87,4.43-2.56c0,.07,3.58,2.53,3.58,2.53S412,64.78,412,64.86s2,2.38,2.11,2.54,4.22-2.81,4.38-2.53l-2.26,5.81a12.43,12.43,0,0,0,2.26-1.31c.19.35-2.44,5.49-2.26,5.81s2.19-1.41,2.26-1.3-2.48,4.39-2.25,4.79a13.57,13.57,0,0,1,2.25-1.3l-2.24,5.34s2.1-1.53,2.24-1.29-2.31,4.92-2.24,5,2.18-1.38,2.24-1.29-2.24,5.75-2.23,5.76,2.23-1.28,2.23-1.28c.25.43-2.22,4.77-2.22,4.77s2.12-1.45,2.22-1.28c.27.48-2.5,4.78-2.22,5.27a21.28,21.28,0,0,0,2.22-1.28c.11.2-2.26,5-2.21,5.07s2.21-1.27,2.21-1.27-2.18,5.49-2.15,5.55a15.79,15.79,0,0,0,2.15-1.24c0,.06-1.74,4.91-1.74,4.91.11.19,2-1.16,2-1.16l-1.22,4.49s1.87-1.15,1.9-1.09a28.34,28.34,0,0,1-.82,4c0,.08,1.73-1.25,1.84-1.07s-.49,3.88-.49,3.88l1.82-1c.07.11-.3,3.38-.13,3.67s1.84-1.06,1.84-1.06.32,3.55.44,3.76c0,0,1.88-1.13,1.9-1.1.12.21,1,3.78,1,3.78.1.17,1.93-1.33,2-1.17s.8,3.16.82,3.19a20.77,20.77,0,0,1,2.19-1.27l.88,3s2.35-1.46,2.39-1.38l1.89,3s2.84-1.9,3-1.71,2.6,2.79,2.6,2.79c.23.41,3.76-2.62,3.95-2.28s3.49,2.17,3.68,2.49,4.23-2.71,4.35-2.51,2.32,2.25,2.47,2.51c0,0,4.09-3,4.38-2.52.05.09,1.61,2.42,1.67,2.52s4.26-2.78,4.4-2.54,2.76,2.34,2.87,2.54c.24.41,3.51-2,3.52-2"/><path class="cls-1" d="M403.31,40.28c.26.46,4.47-2.58,4.47-2.58s2.89,2.39,3,2.55c.25.44,4.37-2.74,4.47-2.58,0,0,2.91,2.43,3,2.56s.28-.27.33-.19"/><path class="cls-1" d="M416.31,5.7l.33-.19a37.7,37.7,0,0,0-.33,4.22s2-1.55,2.21-1.27c0,0-2.42,5.32-2.21,5.69a23.08,23.08,0,0,1,2.21-1.28c.21.37-2.38,4.82-2.21,5.12s2.21-1.28,2.21-1.28-2.49,5.18-2.21,5.68c0,0,2.21-1.3,2.22-1.28s-2.51,5-2.22,5.46l2.22-1.28c0,.06-2.24,4.71-2.22,4.75s2.23-1.29,2.23-1.29c.24.43-2.23,5.28-2.23,5.28s2.2-1.34,2.23-1.29"/><path class="cls-1" d="M487.21,39.39c.05.09.32-.19.32-.19s-.43,4.28-.32,4.47c.41.71,7.58-4.75,7.74-4.48,0,0-8,8.6-7.74,9,.75,1.3,14.86-10.18,15.55-9,0,0-15.57,13-15.55,13s21.55-14.87,22.6-13c.44.76-23.76,15.1-22.6,17.1.35.62,29.62-17.11,29.62-17.11S485.53,57,487.21,59.9c0,0,31.59-18.69,31.78-18.35l-31.78,22c1,1.67,30.14-21.21,31.78-18.36,1.09,1.89-33.35,19.91-31.78,22.62,1.77,3.06,31-19.68,31.79-18.36,0,0-31.87,22.58-31.79,22.7S517.67,51.5,519,53.8c0,.07-33.73,19.35-31.79,22.7,1.06,1.85,30.37-20.81,31.79-18.35,1.56,2.71-33.67,19.66-31.79,22.91,0,0,30.61-20.41,31.79-18.36,0,0-32.27,22.1-31.79,22.92S519,67.26,519,67.26c1.67,2.89-31.79,22.54-31.79,22.54L519,71.45c1.32,2.28-31.79,22.77-31.79,22.77L519,75.86c1.68,2.89-32.31,21.23-31.79,22.12.17.3,31.57-18.75,31.79-18.36,0,0-32.29,21.44-31.79,22.3,0,0,31.11-19.54,31.8-18.36,0,0-32.12,22-31.8,22.51L519,87.71s-33.55,18.94-31.8,22c.46.81,31.8-18.36,31.8-18.36s-32.58,21.09-31.8,22.44L519,95.38c1.49,2.59-31.8,22.68-31.8,22.68,1.54,2.67,30.68-20.31,31.8-18.37,0,0-33.24,20.07-31.8,22.56,1.7,3,31.8-18.36,31.8-18.36.43.73-31.8,22.84-31.8,22.84s31.63-18.66,31.8-18.36c1.06,1.82-31.8,22-31.8,22C487.84,131.49,519,112,519,112c1.33,2.31-29.33,19.08-28.57,20.41,1.05,1.82,26.95-19.3,28.57-16.49,0,0-21.39,16.45-21.37,16.48s20.43-14,21.37-12.33c0,0-13.88,12.21-13.81,12.33.36.61,13.31-8.84,13.81-8,0,0-6.8,7.84-6.72,8,.27.48,6.53-4.21,6.72-3.88.09.16-.43,3.7-.32,3.87,0,0,.28-.26.32-.18"/><path class="cls-1" d="M487.21,2.75l.32-.19a37.63,37.63,0,0,0-.32,4.22s6.86-5,7.31-4.23c0,0-7.71,8-7.31,8.65,0,0,14.73-9.09,15-8.66.74,1.29-15.59,11.44-15,12.5,1,1.73,21.64-12.5,21.64-12.5.27.46-22.94,14.66-21.64,16.89.12.23,29.17-17.08,29.27-16.9,0,0-31.06,18-29.27,21.09L519,5.27c.24.41-31.92,21.58-31.78,21.81C487.46,27.53,519,8.73,519,8.73c1.51,2.61-28.72,20.57-28.72,20.57.36.63,28.38-17.17,28.72-16.58,0,0-21.77,16.31-21.61,16.58S519,16.81,519,16.81c.25.44-15.05,12.48-15.05,12.48.5.88,14.17-10.21,15.05-8.69.13.22-7.39,8.1-7.05,8.68S518.9,25,519,25.21l-.32,4.07s.3-.23.32-.19"/><path class="cls-1" d="M489.75,40.25c.14.24,4.2-2.84,4.38-2.53,0,0,1.88,2.5,1.89,2.53s4.24-2.8,4.39-2.54l1.69,2.53c.1.17,4.36-2.61,4.4-2.54s3.39,2.41,3.45,2.53c.28.47,4.42-2.55,4.42-2.55.11.2,3.25,2.34,3.37,2.54s2.57-1.83,2.72-1.57c0,0-2.48,4.58-2.26,5,0,0,2.15-1.5,2.26-1.31s-2.48,4.94-2.26,5.32l2.27-1.3-2.27,4.94c.16.27,2.13-1.55,2.27-1.31s-2.26,5-2.26,5l2.26-1.31s-2.29,5.57-2.26,5.62,2.21-1.41,2.26-1.31-2.31,5.67-2.26,5.76l2.27-1.31c.07.12-2.56,5.25-2.26,5.76,0,0,2.26-1.3,2.26-1.3s-2.44,4.94-2.26,5.25l2.26-1.3-2.26,5c.06.1,2.17-1.46,2.26-1.31s-2.33,4.93-2.26,5,2.18-1.46,2.27-1.3l-2.26,5.15a24.14,24.14,0,0,1,2.26-1.31c.21.36-2.44,5-2.26,5.3l2.26-1.3c.17.29-2.26,5.68-2.26,5.68s2.22-1.39,2.26-1.31l-2.26,4.84c0,.07,2.11-1.59,2.27-1.31s-2.39,5.4-2.26,5.61c0,0,2.11-1.55,2.26-1.3s-2.31,4.84-2.26,4.92,2.22-1.38,2.26-1.31l-2.26,5.55a20.32,20.32,0,0,1,2.26-1.3c.29.5-2.26,5.9-2.26,5.9s2.23-1.37,2.27-1.3-2.37,5.54-2.26,5.72a17.48,17.48,0,0,1,2.26-1.31s-2.35,5.36-2.26,5.51,2.14-1.52,2.26-1.31c.23.4-2.26,5-2.26,5l2.26-1.3c.07.11-2.25,4.8-2.25,4.8.1.18,2.13-1.52,2.26-1.3"/><path class="cls-1" d="M485.74,37.92c0,.07.27-.28.32-.19s-.39,4.6-.32,4.71a16.09,16.09,0,0,0,2.2-1.27c.05.09-2.22,5.83-2.2,5.85s2.2-1.27,2.2-1.27-2.48,5.09-2.2,5.57c.06.11,2.18-1.33,2.21-1.28.11.2-2.4,4.64-2.21,5A21.14,21.14,0,0,0,488,53.73s-2.47,5.05-2.21,5.49A18.67,18.67,0,0,1,488,57.94c.2.35-2.21,5.11-2.21,5.11.15.26,2.16-1.37,2.21-1.28s-2.29,5.67-2.21,5.81,2.11-1.46,2.22-1.28-2.22,5.87-2.22,5.87,2.19-1.33,2.22-1.28-2.37,4.78-2.22,5,2.13-1.45,2.22-1.29l-2.22,5.79c.09.16,2.23-1.29,2.23-1.29.19.34-2.42,5.47-2.23,5.8s2.17-1.4,2.23-1.29-2.46,4.38-2.23,4.78A13.75,13.75,0,0,1,488,87.14l-2.23,5.34s2.09-1.54,2.23-1.3-2.31,4.92-2.23,5,2.18-1.39,2.24-1.3-2.25,5.76-2.24,5.77c.09.17,2.24-1.29,2.24-1.29.25.43-2.24,4.79-2.24,4.79s2.14-1.47,2.24-1.3c.28.48-2.53,4.8-2.24,5.29a21.74,21.74,0,0,0,2.24-1.3c.12.2-2.3,5-2.24,5.1s2.25-1.3,2.25-1.3-2.29,5.55-2.25,5.61A18,18,0,0,0,488,115c0,.07-2.25,5.2-2.25,5.2.12.21,2.25-1.3,2.25-1.3L485.74,124s2.22-1.37,2.25-1.31c.2.34-2.25,4.86-2.25,4.86s2.13-1.52,2.26-1.3c0,.06-2.26,4.9-2.26,4.9l2.26-1.31c.08.13-1.08,3.78-.89,4.11s4.42-2.55,4.42-2.55,2.43,2.35,2.54,2.54c0,0,4.38-2.6,4.41-2.55.13.22,3.19,2.54,3.19,2.54.18.32,4.23-2.84,4.4-2.55s1.93,2.51,1.95,2.54,4.3-2.69,4.39-2.54L514,133.9s6.37-3.93,6.48-3.75c0,0-.4,3.61-.33,3.74s.3-.25.33-.19"/><path class="cls-1" d="M489.75,3.61c.26.45,4.38-2.53,4.38-2.53s2.95,2.36,3,2.52c.25.43,4.3-2.7,4.39-2.53,0,0,3.34,2.39,3.42,2.52.23.41,4.19-2.91,4.4-2.54L512,3.59S516.22.64,516.45,1l1.75,3c0,.06,2.27-1.31,2.27-1.31S518,7.25,518.21,7.69c0,0,2.24-1.34,2.26-1.31l-2.25,5c.08.15,2.11-1.56,2.26-1.31s-2.49,5.15-2.25,5.56,2.19-1.42,2.26-1.3-2.26,5.62-2.25,5.64,2.14-1.51,2.26-1.3c0,0-2.55,5.12-2.25,5.65.1.16,2.13-1.53,2.26-1.31"/><path class="cls-1" d="M485.74,1.28l.32-.19a37.63,37.63,0,0,0-.32,4.22s2-1.56,2.2-1.28c0,0-2.42,5.32-2.2,5.7A23.08,23.08,0,0,1,488,8.45c.21.36-2.39,4.82-2.21,5.12S488,12.28,488,12.28s-2.51,5.19-2.22,5.68c0,0,2.22-1.3,2.23-1.29s-2.53,5-2.23,5.48l2.24-1.3c0,.06-2.26,4.73-2.24,4.76s2.25-1.3,2.25-1.3c.25.43-2.25,5.3-2.25,5.3s2.3-1.41,2.34-1.35,2.67,2.5,2.69,2.54,4.42-2.55,4.42-2.55,2.16,2.54,2.16,2.54c.16.28,4.12-3,4.41-2.55.05.09,3.47,2.3,3.6,2.53s4.32-2.67,4.4-2.54l3.6,2.53s7-4.42,7.15-4.13l-.67,4.12s.67-.41.68-.39"/><path class="cls-1" d="M541.93,39.23l.32-.19a40.58,40.58,0,0,0-.32,4.22s6.86-5,7.31-4.22c0,0-7.71,8-7.31,8.64,0,0,14.71-9.08,15-8.64.74,1.28-15.58,11.43-15,12.48,1,1.73,21.62-12.48,21.62-12.48.27.46-22.91,14.65-21.62,16.88.13.22,29.14-17.07,29.25-16.89,0,0-31,18-29.25,21.07L578.43,39c.27.47-36.66,24.27-36.5,24.54.34.59,42.5-24.54,42.5-24.54,2.05,3.55-39.7,26.92-39.7,26.92.58,1,46.08-27.87,46.62-26.92,0,0-39.79,26.44-39.52,26.91.45.78,46.63-26.92,46.63-26.92.61,1.07-40.06,26.92-40.06,26.92,1.52,2.64,44-31.49,46.62-26.92.55.95-40,24.45-38.62,26.91C568.4,69.4,612.32,37.82,613,39L574.39,65.93S620,37.23,621,39l-40.15,26.9S627,38.44,627.35,39.08c.83,1.45-44.09,29.08-44.09,29.08,2.48,4.28,44.09-25.46,44.09-25.46s-56.8,34.48-55.9,36.05c2.75,4.77,55.9-32.28,55.9-32.28S555.06,88.05,557.11,91.6C558.68,94.31,627.35,51,627.35,51s-85,45.1-81.67,50.81c1.27,2.2,79.45-51,81.67-47.16,1.49,2.57-93.18,48.22-88.87,55.68.77,1.33,88.87-51.31,88.87-51.31,1.95,3.37-92.05,50.14-88.87,55.65,1.31,2.27,87.6-50.57,87.6-50.57.48.83-87.6,54.88-87.6,54.88l73.87-42.64s-75.07,45-73.86,47.13c0,0,56.23-40.19,59.58-34.4,1.81,3.13-59.58,38.42-59.58,38.42l46.77-27c1,1.73-46.77,30.77-46.77,30.77.92,1.61,43.74-26.63,44.34-25.6l-39,26.75c.53.92,45-29,46.33-26.75.41.71-41.68,24.15-40.18,26.75,1.13,2,46.33-26.75,46.33-26.75,1.17,2-40.18,26.75-40.18,26.75,2.16,3.74,46.34-26.76,46.34-26.76S562,131.14,562.74,132.44c1.83,3.17,45.51-28.2,46.34-26.76s-41.79,22.85-39.53,26.75l46.34-26.75c1.88,3.24-41.22,23.1-39.11,26.75.65,1.13,44.4-30.13,46.35-26.76,1.32,2.28-41.18,24.62-39.94,26.76,1,1.78,45.56-28.13,46.35-26.76.92,1.6-39,26.76-39,26.76,1.2,2.08,38.31-26.3,40.12-23.17,0,0-33.81,21.41-32.8,23.16s32.81-18.94,32.81-18.94c1.46,2.53-26.79,16.68-25.48,18.94l25.48-14.71c1.15,2-17.61,14.71-17.61,14.71.3.52,17.39-10.57,17.62-10.17.38.65-11.76,9.06-11.12,10.17,0,0,11-6.59,11.12-6.42.27.46-3.92,6.34-3.88,6.41l3.89-2.24"/><path class="cls-1" d="M544.47,40.09c.26.45,4.37-2.52,4.37-2.52s2.95,2.36,3,2.52c.25.43,4.28-2.69,4.38-2.52,0,0,3.35,2.38,3.42,2.52.24.4,4.17-2.9,4.38-2.53,0,0,2.67,2.52,2.67,2.53s4.16-2.93,4.39-2.53c0,.09,2.47,2.27,2.62,2.52s4.39-2.53,4.39-2.53,1.74,2.28,1.89,2.53c0,0,4.36-2.59,4.39-2.53l1.93,2.53c.15.26,4.14-3,4.4-2.54.1.19,2.83,2.26,3,2.54.28.48,4.28-2.75,4.4-2.54l3.14,2.53s4.19-2.9,4.4-2.54c0,0,2.93,2.2,3.13,2.54s4.19-2.93,4.41-2.54,3.28,2.18,3.49,2.54c0,0,4.23-2.87,4.41-2.55,0,0,3.44,2.45,3.49,2.55s4.23-2.44,4.23-2.44c.25.44-2.26,5.49-2.26,5.49l2.26-1.31c.21.36-2.25,5.71-2.25,5.71l2.25-1.3c.24.41-2.31,4.93-2.24,5.06s2.23-1.33,2.25-1.3-2.31,5.11-2.24,5.24a17.8,17.8,0,0,1,2.24-1.29s-2.27,5.35-2.22,5.43l2.22-1.29s-5.77,6-5.38,6.71c.09.15,5.39-3.11,5.39-3.11S610,75.52,610.5,76.33l11.67-6.74c1.21,2.1-25.38,19-25.38,19,.59,1,11.22-7.46,11.65-6.72,0,0-26.14,16.63-25,18.62.65,1.12,11.63-6.71,11.63-6.71.21.37-14.72,13-14.72,13s4.29-2.54,4.31-2.49,2,2.49,2,2.49a42.29,42.29,0,0,0,4.33-2.5c.14.23,2.39,2.36,2.46,2.5.18.31,4.07-3,4.35-2.51,0,0,2.84,2.5,2.84,2.51s4.15-2.89,4.36-2.52c0,0,3.17,2.49,3.19,2.52.12.21,4.2-2.83,4.37-2.53,0,0,2.68,2.48,2.7,2.53.19.33,4.26-2.76,4.39-2.54s3.07,2.35,3.18,2.54c0,0,4.17-3,4.41-2.55.06.11,2.21,2.55,2.21,2.55.11.2,2.52-1.67,2.61-1.51s-2.25,5.79-2.25,5.79a22.12,22.12,0,0,1,2.26-1.31,49.82,49.82,0,0,0-2.26,5c.12.21,2.27-1.3,2.27-1.3s-2.26,5.14-2.26,5.14,2.13-1.54,2.27-1.31-2.28,4.77-2.26,4.81,2.2-1.41,2.26-1.3c.22.37-2.29,5.82-2.25,5.89.15.25,2.2-1.41,2.26-1.3l-2.25,5.1s2.24-1.33,2.26-1.31"/><path class="cls-1" d="M540.46,37.76l.33-.19a37.89,37.89,0,0,0-.33,4.22s2-1.55,2.2-1.27c0,0-2.41,5.32-2.2,5.69a24.37,24.37,0,0,1,2.21-1.28c.22.37-2.38,4.82-2.21,5.12s2.22-1.28,2.22-1.28-2.51,5.18-2.22,5.68c0,0,2.22-1.31,2.24-1.29s-2.53,5-2.24,5.47l2.25-1.29s-2.27,4.73-2.25,4.76,2.25-1.3,2.25-1.3c.25.42-2.25,5.29-2.25,5.29s2.23-1.36,2.26-1.31l2.5,2.66c0,.08,4.41-2.54,4.41-2.54s2.16,2.53,2.16,2.53c.17.28,4.11-3,4.39-2.53.05.09,3.49,2.29,3.62,2.52s4.3-2.65,4.37-2.52l3.63,2.51s4.24-2.7,4.35-2.51l2.13,2.5s4.29-2.57,4.33-2.5,2,2.49,2,2.49c.28.48,4.32-2.49,4.32-2.49S572.3,75.42,572.53,75.8c.59,1,11.45-6.61,11.45-6.61s-26.58,18.1-25.79,19.47c.27.46,11.48-6.63,11.48-6.63s-23.89,15.19-22.91,16.88c.18.32,11.17-7.21,11.49-6.64S535.89,107,537,108.9c.07.13,7.59-4.38,7.59-4.38.22.37-7.94,8.12-7.59,8.73,0,.07,2.23-1.29,2.23-1.29s-2.22,5.6-2.22,5.6l2.23-1.29s-2.31,5.62-2.23,5.77c0,0,2.08-1.58,2.24-1.3s-2.24,5.32-2.24,5.32l2.26-1.3c.09.17-2.25,5.07-2.25,5.07s2.22-1.38,2.26-1.31l-2,5.42c.06.1,4.28-2.8,4.42-2.55,0,.05,1.64,2.38,1.74,2.55s4.41-2.55,4.41-2.55,1.74,2.55,1.74,2.55c.23.4,4.41-2.55,4.41-2.55s2.12,2.45,2.17,2.54c.2.34,4.32-2.7,4.41-2.54s2.24,2.25,2.4,2.54l4.41-2.55c.15.26,2.66,2.25,2.83,2.54.07.12,4.19-2.9,4.4-2.54.09.15,1.93,2.39,2,2.54s4.31-2.69,4.4-2.54,2.93,2.53,2.93,2.53c.15.26,4.17-2.92,4.39-2.53,0,0,2.83,2.36,2.93,2.53s4.39-2.54,4.39-2.54c.18.31,2.78,2.26,2.94,2.53l4.39-2.53a36.2,36.2,0,0,0,3.49,2.53c.09.14,4.32-2.64,4.39-2.53s2,2.28,2.12,2.53c0,0,4.33-2.61,4.38-2.53s2.84,2.48,2.86,2.52l4.38-2.53c.15.28,3.29,2.16,3.5,2.53l4.07-2.36"/><path class="cls-1" d="M729.68,100.51c0,.07.77-.57.82-.47"/><path class="cls-1" d="M683.06,102.18c2.66,4.61,64-44.81,67.39-38.9C752,66,695,97.71,695.93,99.28c1.36,2.35,56-32.31,56-32.31.42.73-43,29.2-42.93,29.36C710.44,98.9,753,70.88,753,70.88s-33.65,19.58-31.85,22.69c.72,1.26,32.37-19.42,32.69-18.87.58,1-23.15,14.85-22.2,16.5.46.79,22.72-13.11,22.72-13.11S743,87.38,743.68,88.49c0,0,10.84-6.85,11.09-6.41a29.26,29.26,0,0,1-.79,4.08c.09.15.92-.59.95-.54"/><path class="cls-1" d="M692.87,60.76c1.85,3.21,35.47-20.48,35.47-20.48s-26.22,17.68-25.47,19c1.48,2.55,28.72-17.86,29.28-16.9,0,0-23.23,16.69-22.7,17.6,1.25,2.17,25.17-17.17,26.31-15.19,0,0-22,16.69-21.94,16.74s23.74-16.38,24.9-14.38c.42.73-22.63,14.56-21.52,16.47.29.51,24.15-13.94,24.15-13.94s-22.79,13.91-21.54,16.06c0,0,23.53-13.92,23.67-13.67l-21.39,16c.72,1.24,22.11-15.58,23.33-13.47"/><path class="cls-1" d="M666,45.94l12.21-7S656,53.62,656.93,55.18c0,0,32.52-23.35,34.5-19.92,0,0-40.39,23.92-38.74,26.78,0,0,46.91-28.89,47.69-27.53,2.27,3.93-51.85,29.48-50,32.7,2.55,4.42,56.33-32.52,56.33-32.52.68,1.18-61.26,32.25-58,37.89.28.48,64.08-37.52,64.31-37.13,0,0-69,35.22-65.23,41.84l70.53-40.71c.51.89-71.24,43.91-70.94,44.42.59,1,74.94-43.27,74.94-43.27,3.79,6.58-75.12,47.36-75.12,47.36,1,1.72,78.28-47.32,79.2-45.72,0,0-79.65,48.85-79.12,49.77.32.55,32.59-18.81,32.59-18.81.5.87-32.29,22.43-32.29,22.43,1,1.69,28-20.1,29.72-17.16.42.73-30.16,19.51-29.07,21.4,1.37,2.37,31.21-19.12,31.69-18.3L649.2,101S692,74.08,693,75.76l-42.78,28.43s52.93-31.55,53.36-30.81c1,1.71-52.17,33.75-52.17,33.75,3.49,6.05,62.45-36.06,62.45-36.06s-62,37.31-61.05,39C657.39,118,746.42,56,746.42,56s-94.31,52.91-91.66,57.5c2.09,3.61,93.72-54.11,93.72-54.11s-95.64,50.32-91.94,56.73c1.46,2.51,90.87-58.32,93.4-53.93,1.52,2.64-95.4,49.27-91,56.91.21.36,23.91-13.81,23.91-13.81.5.87-22,15.18-21.22,16.6.37.64,24.33-14,24.33-14,.12.22-21.37,16.65-21.37,16.65L689.83,110S667.63,126.37,668,127c0,0,25.42-18.22,27-15.57.75,1.3-23.59,17.65-23.59,17.65L701,112c.58,1-26.15,18.87-26.15,18.87.7,1.21,33-20.1,33.44-19.31L679,132.74c.61,1.06,52.21-33.7,53.75-31,.5.87-51.79,29.17-49.94,32.38,1.28,2.22,52.62-30.38,52.62-30.38,1.4,2.41-48.4,31.49-48.4,31.49,2.38,4.12,51.09-29.49,51.09-29.49s-47,29-46.16,30.45c1.94,3.35,48.15-29.84,49-28.31s-45.87,24.71-43.4,29L744,110.05c1.9,3.29-41.79,23.37-39.65,27.07.6,1,41-27.84,42.81-24.72,1.19,2.06-37,22.48-35.88,24.41.86,1.49,38-23.47,38.68-22.33s-28,20.42-28,20.42c.72,1.25,22.71-15.62,23.8-13.74"/><path class="cls-1" d="M693.55,62.11l6.53-3.77c.2.35,3.57,2.12,3.75,2.43,0,0,3.41-2.48,3.63-2.1s1.81,2.79,1.81,2.79c.18.31,2.61-1.71,2.7-1.56s1.62,3,1.79,3.25c0,0,2.15-1.27,2.16-1.25.18.32,1.2,3.51,1.21,3.53.15.26,2-1.15,2-1.15s.36,3.13.45,3.28,1.87-1.16,1.91-1.1"/><path class="cls-1" d="M683.43,64.56l8-4.63S676.8,70.64,677.71,72.21c0,.09,4.55-2.67,4.57-2.64.38.66-6.36,7.2-6.26,7.37l3-1.75-2.36,5.41s7.36-5,7.7-4.44c.24.41,5.24,1.43,5.29,1.52.42.72,7.7-4.44,7.7-4.44.09.16,4.28,1.46,4.42,1.72.07.1,7.7-4.45,7.7-4.45.12.2,5.25,1.53,5.25,1.53.44.78,7.27-5.28,7.74-4.47"/><path class="cls-1" d="M729.57,98.46s.74-.46.75-.44"/><path class="cls-1" d="M679.77,39.61c.15.26,9.32-5.92,9.55-5.52a32.48,32.48,0,0,0,3,2.15l5.42-3.14c.08.13,1.88,2.19,2,2.43,0,.06,4.14-2.79,4.31-2.49s1.82,2.55,1.82,2.55,3.58-2.32,3.69-2.13,2.34,2.6,2.42,2.73,3.11-2.06,3.23-1.86,2.17,2.67,2.31,2.91c0,0,2.68-2,2.87-1.66,0,0,1.94,2.86,2,3s2.45-1.68,2.57-1.48c0,0,1.34,2.88,1.45,3.07s2.35-1.36,2.35-1.36c.15.26,1.32,3.18,1.32,3.18s2.12-1.45,2.22-1.28,1,3.16,1,3.16c.1.17,2.09-1.25,2.11-1.22.19.34,1.2,3.47,1.3,3.64s2-1.22,2-1.15L739.77,49c.1.18,1.86-1.19,1.91-1.1s.72,3.82.8,3.95,1.73-1.29,1.86-1.08.55,4.15.55,4.15c.1.16,1.8-1.12,1.83-1.06s-.07,3.67,0,3.75,1.71-1.22,1.81-1.05l.07,4.34c.1.19,1.81-1.05,1.81-1.05.12.2-.12,4.53-.1,4.56s1.72-1.23,1.83-1-.75,4-.75,4,1.79-1.22,1.87-1.08-.79,4.87-.79,4.87,1.8-1.3,1.91-1.11c0,0-1.28,4.64-1.1,5,0,0,1.94-1.2,2-1.14.14.25-1.56,5-1.39,5.28.06.09,2-1.32,2-1.18.2.36-1.79,4.55-1.77,4.57.14.26,2-1.33,2.1-1.21"/><path class="cls-1" d="M685.83,103.1c.23.39,7.45-5,7.75-4.48l2.53,2.15s7.52-4.92,7.77-4.48c0,.08,2.21,2.23,2.21,2.23.16.29,7.72-4.62,7.79-4.5s5,1.45,5.08,1.59c.45.79,7.82-4.51,7.82-4.51.14.24,4.81,1.37,5,1.63s7.46-5.19,7.84-4.53c0,0,2.42,2,2.55,2.18,0,0,7.54-5.09,7.86-4.54.06.1,3.4,1.69,3.56,2l2.86-1.65"/><path class="cls-1" d="M679.3,102.09c.06.09.6-.5.66-.39s1.81,3.36,1.87,3.45a12.69,12.69,0,0,0,1.89-1.09c0,.06,1.18,3.88,1.19,3.89s2.08-1.2,2.08-1.2,1.33,3.13,1.5,3.43c.07.12,2.4-1.45,2.43-1.4s1.24,2.72,1.35,2.91a27.56,27.56,0,0,0,2.93-1.7s2.29,2.53,2.45,2.8a36.85,36.85,0,0,1,3.9-2.25c.13.22,2.38,2.46,2.38,2.46.31.54,5.22-3.25,5.33-3.08s5.1,1.43,5.16,1.55,13.49-9,14-8.09"/><path class="cls-1" d="M731.35,101.56c.14.25,2.09-1.21,2.09-1.21s1,3.46,1.14,3.62,2-1.3,2.09-1.21,1.24,3.62,1.31,3.74,2-1.41,2.1-1.21l1,3.51s2-1.43,2.09-1.21.82,3.23,1,3.48c0,.06,2.09-1.21,2.09-1.21s.5,3,.65,3.25c0,0,2.08-1.23,2.09-1.2l.67,3.26c.08.14,2-1.45,2.09-1.21.44.75-12.33,9.24-11.7,10.32s10.61-6.76,10.89-6.29"/><path class="cls-1" d="M665.13,44.67l12.32-7.11S655,52.45,655.9,54c0,0,7-5.08,7.43-4.29,0,0-12.35,10.23-11.78,11.22,0,0,4.28-2.66,4.37-2.52.39.68-7,7.17-6.73,7.73.19.32,3.52-2,3.52-2,.09.16-5.71,6.71-5.28,7.45,0,0,2.93-1.72,2.94-1.7s-4.32,5.82-4,6.47L649,74.84c0,.06-3.1,5.21-3.08,5.24s2.42-1.39,2.42-1.39c.26.45-2.66,5.52-2.66,5.52S648,82.84,648,82.9s-2.27,5.34-2.24,5.4,2.17-1.25,2.17-1.25S646,91.94,646,91.94c.09.16,1.93-1.47,2.09-1.2.06.11-1.68,5.18-1.51,5.48s2-1.22,2-1.15l-1.11,5.25a14.08,14.08,0,0,1,1.92-1.11l-1,4.29s1.85-1.11,1.87-1.08-.76,4.07-.76,4.07c.14.24,1.83-1.06,1.83-1.06s-.56,4-.5,4.06,1.82-1.06,1.82-1.06-.08,4.37,0,4.56a12.64,12.64,0,0,0,1.82-1,33.58,33.58,0,0,0-.14,3.73c0,.07,1.76-1.17,1.83-1.06s.27,3.82.44,4.11c0,0,1.86-1.07,1.86-1.07s.57,3.74.69,3.95,1.9-1.1,1.9-1.1.93,3.78.93,3.78l2-1.14s1.2,3.67,1.25,3.76,1.9-1.44,2-1.18,1.13,3.37,1.13,3.37l2.17-1.25c.06.1,1.08,3.14,1.08,3.14s2.25-1.38,2.28-1.31l1.69,3.27a24.54,24.54,0,0,1,2.44-1.41c0,.05,1,2.73,1.13,2.9a19.71,19.71,0,0,0,2.6-1.5c.07.12,1.3,2.8,1.3,2.8.16.28,2.86-1.66,2.86-1.66l1.73,2.8c.15.26,3.07-1.93,3.14-1.81s1.89,2.46,2,2.74l3.49-2c.15.25,2.47,2.36,2.64,2.65.07.11,3.82-2.66,4-2.32.09.15,2,2.35,2.09,2.49s4.63-2.88,4.72-2.72,3.48,2.22,3.48,2.22c.22.38,6.52-4.54,6.85-4a47.4,47.4,0,0,1,5,1.33c.58,1,19-10.95,19-10.95"/><path class="cls-1" d="M814.55,66.24c1.25,2.15,23.61-13.63,23.61-13.63S822,65.07,822.52,65.92c.75,1.3,14.35-9,14.64-8.45,0,0-7,8.1-6.85,8.45.3.52,5.52-3.82,5.79-3.35"/><path class="cls-1" d="M771,39.39l.33-.19a37.7,37.7,0,0,0-.33,4.22s6.87-5,7.32-4.22c0,0-7.71,7.95-7.32,8.64,0,0,14.73-9.09,15-8.65.74,1.28-15.59,11.44-15,12.49,1,1.73,21.65-12.5,21.65-12.5.27.47-22.94,14.66-21.65,16.9.12.21,27.27-16,27.37-15.8,0,0-29,17.08-27.37,20l28.28-16.32c.21.37-28.4,19.58-28.28,19.79.32.55,39.83-23,39.83-23,2,3.56-39.83,27-39.83,27,.63,1.07,48.81-29.51,49.39-28.51,0,0-49.72,32-49.39,32.61.55.94,56.52-32.63,56.52-32.63C828.37,40.68,771,75.6,771,75.6c2.06,3.57,59.54-42.58,63.1-36.42.88,1.52-65.37,37.1-63.1,41,3,5.16,68.75-42.08,69.79-40.29L771,84.82s67.19-42.29,68.71-39.66L771,88.55s67.29-40.09,67.83-39.16C840.09,51.59,771,92.18,771,92.18c2,3.44,35.3-20.38,35.3-20.38S770.41,94.94,771,96c1.62,2.8,32.59-18.82,32.59-18.82S770,98.82,771,100.52c.72,1.25,31.8-18.36,31.8-18.36s-33.12,19.72-31.8,22c.51.87,30.92-19.87,31.79-18.35.56,1-33.39,19.93-31.79,22.71.28.49,31.8-18.35,31.8-18.35.72,1.26-33,20.65-31.8,22.7.49.84,31.8-18.36,31.8-18.36.18.32-31.8,22.67-31.8,22.67l31.8-18.36s-32.33,21.91-31.8,22.84c0,0,30-21.47,31.8-18.35,1,1.71-31.8,22.38-31.8,22.38l31.81-18.36c.69,1.2-31.81,22.13-31.81,22.13.67,1.15,31.38-19.11,31.81-18.37l-29.6,21.34c.34.59,28.75-18.57,29.6-17.09.24.42-24.35,15.52-23.45,17.09.58,1,23.45-13.54,23.45-13.54.53.91-17.29,13.53-17.29,13.53.83,1.43,17.29-10,17.29-10s-10.93,9.58-10.7,10c.44.77,10.51-6.53,10.71-6.18s-4.24,5.58-3.9,6.18l3.9-2.25"/><path class="cls-1" d="M773.54,40.25c.08.13,4.26-2.72,4.38-2.53s2.32,2.52,2.32,2.52l4.38-2.53c.07.13,1.71,2.29,1.84,2.53,0,0,4.22-2.84,4.39-2.54s1.86,2.53,1.86,2.53,4.27-2.76,4.39-2.54.73,3.53.81,3.67,1.88-1.26,2-1.13-1.21,4.52-1,4.83c0,0,1.81-1.36,1.94-1.12a46.28,46.28,0,0,0-1,4.79c0,.05,2.3-1.59,2.41-1.4"/><path class="cls-1" d="M811.25,41.9c.21.37,6.79-4.56,7.07-4.08l2.06,2.42s4.23-2.78,4.37-2.52l1.74,2.5c.1.17,4.33-2.59,4.38-2.52s3.39,2.41,3.46,2.52c.27.48,4.42-2.55,4.42-2.55.11.19.62,3.86.74,4.06s2.59-1.85,2.74-1.58c0,0-3.86,5.26-3.59,5.72,0,0,2.62-1.8,2.74-1.58s-3.94,5.66-3.67,6.13l2.74-1.58-3.58,5.71c.18.31,2.57-1.86,2.73-1.58S836,58.73,836,58.73l2.72-1.57S835,63.56,835,63.62s2.65-1.68,2.71-1.57"/><path class="cls-1" d="M815.09,67.63c.21.36,4.47-3.21,4.74-2.74.1.18,3.44,2.4,3.5,2.5s4.37-2.52,4.37-2.52,3.56,2.51,3.57,2.52c.22.39,6.09-3.52,6.09-3.52"/><path class="cls-1" d="M807.48,68.7c.33.57,5.86-3.39,5.86-3.39s-10.46,9.53-10.12,10.12c.23.39,3.8-2.39,3.89-2.24s-5.15,7.09-5,7.38,2.34-1.67,2.48-1.43c0,0-2.56,5.53-2.55,5.54s2.07-1.5,2.2-1.28-2.44,4.91-2.2,5.32c0,.06,2.21-1.28,2.21-1.28s-2.46,4.47-2.21,4.9c0,0,2.19-1.31,2.21-1.28L802.05,96c.08.15,2.07-1.54,2.21-1.28s-2.45,5.13-2.21,5.54,2.15-1.4,2.22-1.28-2.24,5.61-2.22,5.63,2.11-1.5,2.22-1.29c0,0-2.52,5.11-2.22,5.63.09.17,2.1-1.51,2.23-1.29.25.44-2.53,5.33-2.23,5.85,0,0,2.13-1.48,2.23-1.29,0,0-2.31,5.72-2.23,5.85a23.73,23.73,0,0,0,2.24-1.3c.25.44-2.24,5.49-2.24,5.49l2.24-1.3c.21.36-2.24,5.71-2.24,5.71l2.25-1.3c.24.41-2.33,4.91-2.25,5s2.23-1.34,2.25-1.31"/><path class="cls-1" d="M769.52,37.92l.33-.19a37.7,37.7,0,0,0-.33,4.22s2.05-1.55,2.21-1.27c0,0-2.42,5.32-2.21,5.69a24.37,24.37,0,0,1,2.21-1.28c.21.37-2.38,4.82-2.21,5.12s2.21-1.28,2.21-1.28-2.49,5.18-2.21,5.68c0,0,2.21-1.3,2.22-1.28s-2.51,5-2.22,5.46l2.22-1.28c0,.06-2.23,4.71-2.22,4.75S771.74,61,771.74,61c.25.42-2.22,5.27-2.22,5.27s2.19-1.34,2.23-1.28-2.26,5.32-2.23,5.38,2.23-1.29,2.23-1.29-2.23,5.07-2.23,5.07c.1.17,2.07-1.56,2.23-1.28s-2.42,5.57-2.23,5.9,2.19-1.36,2.23-1.29l-2.23,5.89a17.06,17.06,0,0,1,2.24-1.28l-2.24,5s2.22-1.33,2.24-1.29-2.24,4.92-2.24,4.92c.17.28,2.24-1.29,2.24-1.29s-2.31,4.93-2.24,5.06,2.24-1.3,2.24-1.3-2.39,5.6-2.24,5.87a17.24,17.24,0,0,0,2.25-1.29s-2.43,4.62-2.25,4.94c.05.08,2.17-1.43,2.25-1.3s-2.5,5.23-2.25,5.66c0,0,2.25-1.29,2.25-1.29.12.19-2.43,5.32-2.25,5.64.05.07,2.26-1.3,2.26-1.3s-2.26,5.61-2.26,5.61l2.26-1.3s-2.34,5.64-2.26,5.78,2.1-1.58,2.26-1.3-2.26,5.33-2.26,5.33l2.26-1.31c.1.17-2.26,5.08-2.26,5.08s2.23-1.38,2.27-1.31l-2.26,5.55a22,22,0,0,1,2.26-1.3s.85,2.83,1,3,4.41-2.55,4.41-2.55,1.75,2.54,1.75,2.54c.23.4,4.41-2.55,4.41-2.55s2.13,2.45,2.19,2.54c.19.34,4.31-2.7,4.4-2.55s2.25,2.25,2.42,2.53l4.39-2.53c.16.26,2.69,2.23,2.86,2.52.07.13,4.51-3.12,4.74-2.73"/><text class="cls-2" transform="translate(539.65 20.64) scale(0.99 1)">에피-타이저</text></g></g></svg>